<svg width="100" height="100" viewBox="0 0 100 100" xmlns="http://www.w3.org/2000/svg">
  <g fill="none" stroke="currentColor" stroke-width="0.5">
    <!-- Circuit patterns -->
    <path d="M10,10 h20 v20 h20 v20 h-20 v20 h20" />
    <path d="M80,10 v30 h-20 v20 h20 v30" />
    <path d="M10,80 h20 v-20 h30" />
    
    <!-- Connection dots -->
    <circle cx="10" cy="10" r="2" fill="currentColor" />
    <circle cx="30" cy="10" r="2" fill="currentColor" />
    <circle cx="80" cy="10" r="2" fill="currentColor" />
    <circle cx="30" cy="30" r="2" fill="currentColor" />
    <circle cx="50" cy="30" r="2" fill="currentColor" />
    <circle cx="50" cy="50" r="2" fill="currentColor" />
    <circle cx="80" cy="40" r="2" fill="currentColor" />
    <circle cx="60" cy="40" r="2" fill="currentColor" />
    <circle cx="60" cy="60" r="2" fill="currentColor" />
    <circle cx="80" cy="90" r="2" fill="currentColor" />
    <circle cx="60" cy="80" r="2" fill="currentColor" />
    <circle cx="10" cy="80" r="2" fill="currentColor" />
    <circle cx="30" cy="80" r="2" fill="currentColor" />
    <circle cx="30" cy="60" r="2" fill="currentColor" />
  </g>
</svg> 